<svg width="12" height="8" viewBox="0 0 12 8" fill="none" xmlns="http://www.w3.org/2000/svg">
<path d="M1.0003 2.5892L5.2903 6.8292C5.38326 6.92293 5.49386 6.99732 5.61572 7.04809C5.73758 7.09886 5.86828 7.125 6.0003 7.125C6.13231 7.125 6.26301 7.09886 6.38487 7.04809C6.50673 6.99732 6.61733 6.92293 6.7103 6.8292L10.9503 2.5892C11.044 2.49624 11.1184 2.38564 11.1692 2.26378C11.22 2.14192 11.2461 2.01121 11.2461 1.8792C11.2461 1.74719 11.22 1.61648 11.1692 1.49463C11.1184 1.37277 11.044 1.26217 10.9503 1.1692C10.7629 0.982951 10.5095 0.878409 10.2453 0.878409C9.98111 0.878409 9.72766 0.982951 9.5403 1.1692L6.0003 4.7092L2.4603 1.1692C2.27403 0.984458 2.02263 0.880308 1.7603 0.879203C1.62869 0.878442 1.49823 0.903666 1.37639 0.953431C1.25455 1.0032 1.14373 1.07652 1.05029 1.1692C0.95322 1.25882 0.874866 1.36679 0.819759 1.48686C0.764652 1.60694 0.733885 1.73674 0.729236 1.86878C0.724587 2.00081 0.746148 2.13246 0.792673 2.25611C0.839198 2.37977 0.909764 2.49298 1.0003 2.5892Z" fill="black"/>
</svg>
