<svg width="48" height="48" viewBox="0 0 48 48" fill="none" xmlns="http://www.w3.org/2000/svg">
<rect width="48" height="48" rx="24" fill="#757575" fill-opacity="0.08"/>
<path fill-rule="evenodd" clip-rule="evenodd" d="M16.5001 18C16.5001 13.8579 19.8579 10.5 24.0001 10.5C28.1422 10.5 31.5001 13.8579 31.5001 18C31.5001 22.1421 28.1422 25.5 24.0001 25.5C19.8579 25.5 16.5001 22.1421 16.5001 18Z" fill="#BEBEBE"/>
<path fill-rule="evenodd" clip-rule="evenodd" d="M10.2521 41.5089C10.381 34.0259 16.4867 28 24.0001 28C31.5136 28 37.6194 34.0262 37.748 41.5094C37.7565 42.0057 37.4706 42.46 37.0195 42.667C33.0546 44.4863 28.6443 45.5 24.0006 45.5C19.3565 45.5 14.9458 44.4861 10.9806 42.6665C10.5295 42.4595 10.2436 42.0052 10.2521 41.5089Z" fill="#BEBEBE"/>
</svg>
