<svg version="1.1" id="Layer_1" xmlns="http://www.w3.org/2000/svg" xmlns:xlink="http://www.w3.org/1999/xlink" x="0px" y="0px"
	 width="100%" viewBox="0 0 512 512" enable-background="new 0 0 512 512" xml:space="preserve">
<path fill="#000000" opacity="1.000000" stroke="none" 
	d="
M89.000000,513.000000 
	C83.311958,513.000000 77.623917,513.000000 71.350929,512.630554 
	C68.918091,511.727386 67.060944,511.223572 65.223785,510.655121 
	C50.970291,506.244720 39.868408,490.156464 39.887859,475.027008 
	C40.075058,329.417419 39.980762,183.807510 40.033039,38.197693 
	C40.037697,25.219496 45.894485,15.047678 56.615952,7.983946 
	C61.028877,5.076530 66.183006,3.294123 71.000000,1.000000 
	C194.687561,1.000000 318.375122,1.000000 442.648346,1.369443 
	C445.081787,2.272552 446.938843,2.776163 448.775848,3.344652 
	C463.030579,7.756018 474.131317,23.842833 474.111938,38.970192 
	C473.925140,184.739365 474.020782,330.508881 473.963409,476.278290 
	C473.958435,488.925446 467.966888,498.836914 457.839142,505.850098 
	C453.155121,509.093689 447.315643,510.668579 442.000000,513.000000 
	C437.310760,513.000000 432.621490,513.000000 427.338806,512.621826 
	C418.579285,511.309326 411.619690,507.608551 405.751373,502.148438 
	C391.819916,489.186066 378.117828,475.976776 364.352905,462.835968 
	C355.723785,454.598175 347.129883,446.323212 338.554230,438.029724 
	C327.105316,426.957520 315.680420,415.860443 304.261871,404.756958 
	C291.290985,392.144012 278.373260,379.476044 265.349182,366.918304 
	C262.687439,364.351929 259.656433,362.168488 256.714966,359.742035 
	C245.192627,370.607605 233.864044,381.232605 222.602753,391.928497 
	C213.952698,400.144287 205.383163,408.444946 196.785324,416.715637 
	C179.109787,433.718567 161.441635,450.729218 143.765656,467.731659 
	C135.407578,475.771240 126.769798,483.541473 118.747108,491.902344 
	C110.128067,500.884735 101.087341,509.022552 89.000000,513.000000 
M84.000000,264.500000 
	C84.000000,330.319458 84.000000,396.138916 84.000000,462.898346 
	C89.752747,457.747162 94.635223,453.604767 99.260429,449.192657 
	C116.171715,433.060547 132.996078,416.837280 149.855682,400.650940 
	C157.985062,392.846191 166.150803,385.079010 174.245438,377.238403 
	C186.648712,365.224274 198.993378,353.149689 211.384399,341.122925 
	C221.503448,331.301270 231.600739,321.456177 241.813171,311.732269 
	C246.795288,306.988464 252.018021,302.497406 257.075409,297.942780 
	C269.531799,309.602112 281.922424,321.039917 294.132599,332.667206 
	C311.299042,349.014160 328.326660,365.506836 345.423523,381.926910 
	C353.311279,389.502472 361.249115,397.026093 369.116638,404.622559 
	C380.220245,415.343689 391.261047,426.129883 402.363922,436.851776 
	C410.826660,445.024078 419.339600,453.144501 427.851929,461.265228 
	C428.252228,461.647156 428.863800,461.807556 429.709167,462.241730 
	C429.709167,322.905182 429.709167,184.058456 429.709167,45.288685 
	C314.350616,45.288685 199.283066,45.288685 84.000000,45.288685 
	C84.000000,118.218102 84.000000,190.859055 84.000000,264.500000 
z"/>
<path fill="#FFFFFF" opacity="1.000000" stroke="none" 
	d="
M89.468658,513.000000 
	C101.087341,509.022552 110.128067,500.884735 118.747108,491.902344 
	C126.769798,483.541473 135.407578,475.771240 143.765656,467.731659 
	C161.441635,450.729218 179.109787,433.718567 196.785324,416.715637 
	C205.383163,408.444946 213.952698,400.144287 222.602753,391.928497 
	C233.864044,381.232605 245.192627,370.607605 256.714966,359.742035 
	C259.656433,362.168488 262.687439,364.351929 265.349182,366.918304 
	C278.373260,379.476044 291.290985,392.144012 304.261871,404.756958 
	C315.680420,415.860443 327.105316,426.957520 338.554230,438.029724 
	C347.129883,446.323212 355.723785,454.598175 364.352905,462.835968 
	C378.117828,475.976776 391.819916,489.186066 405.751373,502.148438 
	C411.619690,507.608551 418.579285,511.309326 426.872681,512.621826 
	C314.645782,513.000000 202.291550,513.000000 89.468658,513.000000 
z"/>
<path fill="#FFFFFF" opacity="1.000000" stroke="none" 
	d="
M442.468658,513.000000 
	C447.315643,510.668579 453.155121,509.093689 457.839142,505.850098 
	C467.966888,498.836914 473.958435,488.925446 473.963409,476.278290 
	C474.020782,330.508881 473.925140,184.739365 474.111938,38.970192 
	C474.131317,23.842833 463.030579,7.756018 448.775848,3.344652 
	C446.938843,2.776163 445.081787,2.272552 443.117004,1.369443 
	C466.317688,1.000000 489.635376,1.000000 512.949097,1.000003 
	C512.945190,171.666672 512.945190,342.333344 512.945190,513.000000 
	C489.572693,513.000000 466.255005,513.000000 442.468658,513.000000 
z"/>
<path fill="#FFFFFF" opacity="1.000000" stroke="none" 
	d="
M70.531342,1.000000 
	C66.183006,3.294123 61.028877,5.076530 56.615952,7.983946 
	C45.894485,15.047678 40.037697,25.219496 40.033039,38.197693 
	C39.980762,183.807510 40.075058,329.417419 39.887859,475.027008 
	C39.868408,490.156464 50.970291,506.244720 65.223785,510.655121 
	C67.060944,511.223572 68.918091,511.727386 70.882996,512.630554 
	C47.682331,513.000000 24.364662,513.000000 1.050735,513.000000 
	C1.054476,342.333313 1.054476,171.666656 1.054476,1.000000 
	C24.093529,1.000000 47.078106,1.000000 70.531342,1.000000 
z"/>
<path fill="#FFFFFF" opacity="1.000000" stroke="none" 
	d="
M84.000000,264.000000 
	C84.000000,190.859055 84.000000,118.218102 84.000000,45.288685 
	C199.283066,45.288685 314.350616,45.288685 429.709167,45.288685 
	C429.709167,184.058456 429.709167,322.905182 429.709167,462.241730 
	C428.863800,461.807556 428.252228,461.647156 427.851929,461.265228 
	C419.339600,453.144501 410.826660,445.024078 402.363922,436.851776 
	C391.261047,426.129883 380.220245,415.343689 369.116638,404.622559 
	C361.249115,397.026093 353.311279,389.502472 345.423523,381.926910 
	C328.326660,365.506836 311.299042,349.014160 294.132599,332.667206 
	C281.922424,321.039917 269.531799,309.602112 257.075409,297.942780 
	C252.018021,302.497406 246.795288,306.988464 241.813171,311.732269 
	C231.600739,321.456177 221.503448,331.301270 211.384399,341.122925 
	C198.993378,353.149689 186.648712,365.224274 174.245438,377.238403 
	C166.150803,385.079010 157.985062,392.846191 149.855682,400.650940 
	C132.996078,416.837280 116.171715,433.060547 99.260429,449.192657 
	C94.635223,453.604767 89.752747,457.747162 84.000000,462.898346 
	C84.000000,396.138916 84.000000,330.319458 84.000000,264.000000 
z"/>
</svg>