<svg width="31" height="31" viewBox="0 0 31 31" fill="none" xmlns="http://www.w3.org/2000/svg">
<g clip-path="url(#clip0_3586_11698)">
<path d="M22.2382 1.53801C20.2004 0.552672 17.9143 0 15.4991 0C13.0838 0 10.7977 0.552672 8.75994 1.53801L7.41211 15.5L8.75994 29.462C10.7977 30.4473 13.0838 31 15.4991 31C17.9143 31 20.2004 30.4473 22.2382 29.462L23.586 15.5L22.2382 1.53801Z" fill="#D80027"/>
<path d="M15.5007 10.1094L16.8388 14.2277H21.1696L17.6661 16.7733L19.0042 20.8919L15.5007 18.3465L11.9971 20.8919L13.3355 16.7733L9.83203 14.2277H14.1625L15.5007 10.1094Z" fill="#FFDA44"/>
<path d="M8.76089 1.53906C3.57626 4.04607 0 9.35536 0 15.5005C0 21.6457 3.57626 26.9549 8.76089 29.4619V1.53906Z" fill="#496E2D"/>
<path d="M22.2383 1.53906V29.4619C27.4229 26.9549 30.9992 21.6456 30.9992 15.5005C30.9992 9.35542 27.4229 4.04607 22.2383 1.53906Z" fill="#FFDA44"/>
</g>
<defs>
<clipPath id="clip0_3586_11698">
<rect width="31" height="31" fill="white"/>
</clipPath>
</defs>
</svg>
