<svg width="115" height="8" viewBox="0 0 115 8" fill="none" xmlns="http://www.w3.org/2000/svg">
<mask id="mask0_3342_5989" style="mask-type:alpha" maskUnits="userSpaceOnUse" x="0" y="0" width="115" height="8">
<rect width="115" height="7.75281" transform="matrix(-1 0 0 1 115 0.123535)" fill="#C4C4C4"/>
</mask>
<g mask="url(#mask0_3342_5989)">
<path d="M151.713 -30.5889L151.276 -30.6911L152.126 -30.8376L151.719 -30.9449C151.31 -30.9439 150.782 -30.7832 150.494 -30.8686C150.459 -30.9512 150.903 -30.9778 151.016 -31.0436C151.117 -31.1112 151.199 -31.1782 151.261 -31.2441C151.039 -31.2434 150.795 -31.2274 150.543 -31.1972C150.204 -31.1479 149.871 -31.1239 149.582 -31.1279C148.991 -31.1146 148.419 -31.1279 147.776 -31.125L147.99 -31.3239L147.161 -31.2774C147.074 -31.2622 146.969 -31.2866 146.883 -31.2679C146.164 -31.1092 145.861 -31.1957 145.516 -31.2674C145.445 -31.2859 145.36 -31.2998 145.263 -31.3085C144.304 -31.2705 143.44 -31.0481 142.578 -30.934C142.415 -30.9048 142.259 -30.8674 142.121 -30.8244C141.821 -30.7407 141.487 -30.6724 141.15 -30.6257C140.813 -30.579 140.484 -30.5554 140.192 -30.5571C139.547 -30.5589 138.818 -30.5036 138.076 -30.3965C137.856 -30.3612 137.635 -30.3379 137.428 -30.3281C137.221 -30.3183 137.033 -30.3222 136.875 -30.3396L136.373 -30.226C136.156 -30.2721 135.88 -30.2974 135.563 -30.3003C135.245 -30.3033 134.893 -30.2838 134.527 -30.2432C134.138 -30.1991 133.742 -30.1693 133.337 -30.1227C132.502 -30.0335 131.689 -29.979 130.923 -29.9608C129.783 -29.9069 128.67 -29.8651 127.52 -29.7979C126.8 -29.7654 126.099 -29.7476 125.421 -29.7444C124.609 -29.7317 123.73 -29.6703 122.827 -29.563C122.87 -29.4624 123.266 -29.4921 123.531 -29.4955C124.389 -29.5122 125.266 -29.5556 126.148 -29.5881C126.545 -29.6008 126.931 -29.6057 127.304 -29.6025C127.928 -29.6067 128.586 -29.6335 129.266 -29.6825C130.34 -29.7365 131.381 -29.7624 132.376 -29.76C132.454 -29.756 132.525 -29.749 132.589 -29.7389C132.602 -29.7303 132.605 -29.7193 132.597 -29.7072C132.588 -29.695 132.569 -29.682 132.542 -29.6695C132.514 -29.6569 132.478 -29.6453 132.438 -29.6355C132.398 -29.6258 132.354 -29.6184 132.312 -29.614C131.917 -29.5458 131.492 -29.4725 131.12 -29.4622C131.105 -29.4615 131.09 -29.4597 131.075 -29.4571C131.06 -29.4545 131.045 -29.451 131.032 -29.4471C130.197 -29.3031 129.511 -29.3275 128.861 -29.304C127.782 -29.2407 126.742 -29.2111 125.756 -29.2158C125.607 -29.2154 125.446 -29.2072 125.279 -29.1914C124.247 -29.1271 123.281 -29.1199 122.428 -29.1701C122.077 -29.1828 121.751 -29.2114 121.374 -29.2119C121.141 -29.2138 120.939 -29.2321 120.779 -29.2654C120.619 -29.2988 120.504 -29.3467 120.442 -29.4061C120.283 -29.3748 120.121 -29.3469 119.959 -29.3228C119.862 -29.309 119.769 -29.3053 119.699 -29.3125C119.629 -29.3198 119.587 -29.3373 119.581 -29.3617C119.552 -29.43 119.773 -29.4643 119.965 -29.4936C119.849 -29.5082 119.719 -29.5168 119.577 -29.5192C118.778 -29.5348 117.92 -29.5164 117.023 -29.4644C116.327 -29.4021 115.771 -29.4528 115.039 -29.3649C114.951 -29.3498 114.878 -29.372 114.798 -29.3774C114.587 -29.4055 114.324 -29.4118 114.032 -29.3958C113.741 -29.3797 113.429 -29.3418 113.124 -29.2853C112.744 -29.4397 111.923 -29.2634 111.317 -29.2475C111.131 -29.169 111.345 -29.1828 111.354 -29.1612C111.363 -29.1397 111.354 -29.1612 111.427 -29.1739C112.032 -29.0627 112.861 -29.0385 113.798 -29.1046C113.971 -29.1043 114.136 -29.0992 114.291 -29.0894C114.527 -29.0755 114.792 -29.0769 115.075 -29.0935C115.385 -29.1057 115.67 -29.0999 115.916 -29.0764C116.057 -29.0768 116.176 -29.065 116.263 -29.0422C116.35 -29.0194 116.401 -28.9863 116.411 -28.9459C116.317 -28.9147 116.212 -28.8863 116.101 -28.8615C115.523 -28.764 114.946 -28.7236 114.484 -28.7483C113.68 -28.791 112.723 -28.7494 111.869 -28.7639C111.291 -28.7698 110.676 -28.753 110.036 -28.7138C110.036 -28.7138 110.052 -28.6743 110.054 -28.6707C109.978 -28.6536 109.899 -28.6399 109.82 -28.6303C109.82 -28.6303 109.82 -28.6303 109.812 -28.6483C109.847 -28.6655 109.895 -28.6818 109.949 -28.6951L110.14 -28.7279C110.01 -28.7365 109.889 -28.7619 109.755 -28.7464C109.471 -28.7175 109.199 -28.7053 108.957 -28.7105C108.714 -28.7157 108.505 -28.7383 108.343 -28.7768C108.056 -28.8261 107.698 -28.8485 107.294 -28.8426C106.984 -28.848 106.685 -28.8596 106.399 -28.8773C106.399 -28.8773 106.381 -28.9204 106.245 -28.9433C106.374 -28.9716 106.507 -28.9947 106.64 -29.0115C107.22 -29.0536 107.8 -29.0921 108.37 -29.1209C108.579 -29.124 108.776 -29.1191 108.957 -29.1065C109.458 -29.0917 110.021 -29.1127 110.612 -29.1683C110.612 -29.1683 110.729 -29.1885 110.788 -29.1986C110.622 -29.2934 110.049 -29.1985 109.818 -29.2627C109.677 -29.2616 109.429 -29.2535 109.437 -29.2704C109.457 -29.2929 109.459 -29.3139 109.444 -29.3318C109.429 -29.3496 109.398 -29.3639 109.351 -29.3736C109.305 -29.3834 109.246 -29.3883 109.177 -29.388C109.108 -29.3878 109.032 -29.3824 108.954 -29.3722C108.303 -29.3171 107.689 -29.3018 107.15 -29.3272C106.946 -29.3267 106.718 -29.3104 106.515 -29.3063C106.391 -29.3014 106.278 -29.3041 106.182 -29.3143C105.692 -29.3898 105.034 -29.3953 104.305 -29.33C103.953 -29.3066 103.624 -29.3034 103.335 -29.3208C103.129 -29.3239 103.042 -29.2703 102.896 -29.245L102.274 -29.1917L103.072 -29.125C102.902 -28.9721 102.766 -28.9217 102.487 -28.9122C102.08 -28.8978 101.684 -28.8913 101.301 -28.8927C101.018 -28.894 100.784 -28.9269 100.4 -28.8684C100.332 -28.8589 100.267 -28.8558 100.215 -28.8596C99.766 -28.9116 99.2249 -28.9235 98.629 -28.8946C98.3205 -28.9918 97.795 -28.8973 97.3088 -28.8211C97.152 -28.8944 97.4362 -28.928 97.6058 -28.9727C97.1992 -28.9681 96.7895 -28.9707 96.3698 -28.96C96.2435 -28.9639 96.0992 -28.9572 95.9482 -28.9406C95.7971 -28.9239 95.6435 -28.8976 95.4993 -28.8638C95.429 -28.842 95.3442 -28.8256 95.2626 -28.8179C95.181 -28.8103 95.1088 -28.8121 95.061 -28.8229C94.8432 -28.8548 94.4942 -28.8254 94.3142 -28.8792C94.2502 -28.8916 94.1587 -28.8933 94.0561 -28.8841C93.9535 -28.8749 93.8464 -28.8553 93.7542 -28.8289C93.8552 -28.8207 93.9452 -28.8077 94.022 -28.7902C94.2975 -28.7336 94.1964 -28.639 93.8463 -28.5014C93.3088 -28.509 92.7598 -28.5068 92.2616 -28.5328C91.9839 -28.556 91.6437 -28.5488 91.2791 -28.5118C90.9145 -28.4747 90.5401 -28.4095 90.1979 -28.3233C90.0741 -28.2901 89.9329 -28.2672 89.8025 -28.259C89.672 -28.2507 89.5619 -28.2579 89.4939 -28.279C89.4516 -28.3033 89.4385 -28.3342 89.4557 -28.3688L89.807 -28.4294C89.807 -28.4294 89.7933 -28.4618 89.7902 -28.469L89.2851 -28.4744C89.0179 -28.4746 88.7391 -28.4651 88.4865 -28.4678C88.1154 -28.4858 87.6919 -28.4758 87.2419 -28.4382C86.8269 -28.3997 86.419 -28.3706 86.0219 -28.3512C85.6375 -28.3311 85.359 -28.395 84.9932 -28.4052C84.7167 -28.4128 84.4124 -28.4046 84.0921 -28.3808C83.5389 -28.3387 83.0311 -28.3386 82.6151 -28.3806C82.13 -28.1542 81.8943 -28.1173 81.444 -28.1785L81.2322 -28.196L81.1744 -28.1474L81.0127 -28.1581C80.7101 -28.1676 80.4074 -28.1771 80.0917 -28.1805C79.6527 -28.1595 79.1786 -28.103 78.7158 -28.0164C78.628 -28.0013 78.5085 -27.9498 78.4313 -27.9095C78.3542 -27.8691 78.186 -27.7475 78.0625 -27.6683C78.1971 -27.6105 78.3463 -27.5553 78.4532 -27.4888C78.4639 -27.4775 78.4628 -27.4639 78.4501 -27.4493C78.4373 -27.4347 78.4132 -27.4193 78.3798 -27.4046C78.3463 -27.3898 78.3045 -27.376 78.2575 -27.3642C78.2105 -27.3524 78.1597 -27.3431 78.1092 -27.3369C78.0108 -27.3235 77.9137 -27.3145 77.8219 -27.3104C77.3695 -27.3034 76.9364 -27.3086 76.5266 -27.3261C76.377 -27.3509 76.1722 -27.3532 75.9446 -27.3328C75.717 -27.3124 75.4797 -27.2704 75.2703 -27.2135C74.7342 -27.2477 74.1112 -27.2376 73.4443 -27.1839C72.7391 -27.2166 71.8871 -27.1506 71.2282 -27.2221C71.2435 -27.1861 71.1755 -27.1243 71.0807 -27.0886C70.9307 -27.0344 70.7608 -26.9842 70.5781 -26.9401L69.1848 -26.854C69.1327 -26.8098 69.0676 -26.765 68.9903 -26.7202C68.9374 -26.6848 68.8452 -26.6502 68.7332 -26.6237C68.6213 -26.5972 68.4984 -26.5808 68.3907 -26.5781C68.1135 -26.565 67.881 -26.5943 67.5504 -26.5219C68.0595 -26.4533 68.7462 -26.4624 69.488 -26.5475C70.185 -26.6123 70.8554 -26.6446 71.4744 -26.6434C71.6784 -26.6439 71.9472 -26.6401 72.011 -26.6009C72.1523 -26.4903 72.522 -26.5078 72.9533 -26.5282C73.2921 -26.5505 73.6016 -26.548 73.8563 -26.5209C74.111 -26.4937 74.3036 -26.4427 74.4183 -26.372C74.4474 -26.3037 74.3779 -26.2454 74.0805 -26.2057L72.844 -26.0463C72.6617 -26.0668 72.4888 -26.0911 72.326 -26.119C72.0516 -26.1561 71.7128 -26.1662 71.3359 -26.1487C70.9591 -26.1312 70.5544 -26.0865 70.1532 -26.018C69.9483 -25.9826 69.7433 -25.9473 69.5948 -25.9641C69.4644 -25.9834 69.3443 -26.0065 69.2354 -26.0332C69.2134 -26.0512 69.2046 -26.0718 69.2094 -26.0943C69.1305 -26.0839 69.0515 -26.0702 68.9751 -26.0539C68.3646 -25.8637 67.8918 -25.867 67.4623 -25.9163C67.346 -25.931 67.2576 -25.9543 67.1398 -25.9726C67.022 -25.9908 66.9805 -26.0145 66.8734 -26.0076C66.02 -25.9453 65.7742 -26.1536 65.0549 -26.1453C65.0199 -26.1534 64.9981 -26.1656 64.9917 -26.1806C64.9853 -26.1957 64.9944 -26.2132 65.0183 -26.2315C65.069 -26.2481 65.1278 -26.2623 65.1892 -26.2729C65.2506 -26.2835 65.3126 -26.2901 65.3696 -26.2922C65.7006 -26.3189 65.993 -26.3107 66.1966 -26.269C66.3409 -26.2519 66.4936 -26.2383 66.6539 -26.2283L67.3741 -26.53C66.6763 -26.5024 66.0164 -26.5025 65.4096 -26.5306C65.2772 -26.5463 65.053 -26.5192 64.8667 -26.514L63.4958 -26.4858C63.214 -26.4835 62.9739 -26.5308 62.5808 -26.4205C62.5808 -26.4205 62.3212 -26.4027 62.252 -26.4178C62.1827 -26.4329 61.8757 -26.5265 61.6926 -26.5875C61.48 -26.5701 61.1857 -26.5232 61.0533 -26.5389C60.822 -26.5776 60.6218 -26.6271 60.4562 -26.6867L59.6281 -26.6016C59.629 -26.5261 59.6592 -26.4551 59.7183 -26.3896C59.7829 -26.3264 59.7806 -26.2506 59.7119 -26.1683C59.6431 -26.086 59.5097 -25.9996 59.3225 -25.9162L58.5049 -25.4741C58.3714 -25.4445 58.2292 -25.4246 58.0975 -25.417C57.9658 -25.4095 57.8509 -25.4147 57.7686 -25.4319C57.4168 -25.4831 57.0226 -25.5232 56.6709 -25.5743C56.217 -25.496 56.3337 -25.3695 56.0038 -25.2586L54.9351 -25.0742C54.7721 -24.9033 54.606 -24.7396 55.1018 -24.6824C55.2003 -24.6724 55.1339 -24.6069 55.2239 -24.58C54.8384 -24.4518 54.4147 -24.4134 54.0241 -24.3344C53.87 -24.2776 53.7412 -24.2174 53.6439 -24.1569C53.537 -24.0657 53.3202 -23.9726 53.0405 -23.8976C52.7607 -23.8226 52.4404 -23.7718 52.1487 -23.7561C51.6593 -23.7081 51.1583 -23.636 50.6679 -23.543C50.5004 -23.5107 50.3283 -23.4872 50.1632 -23.474C49.998 -23.4608 49.8437 -23.4583 49.7105 -23.4666C49.2361 -23.4812 48.8345 -23.5315 48.532 -23.6143C48.2328 -23.6845 47.8295 -23.7184 47.3587 -23.7128C46.5535 -23.5739 46.3911 -23.3645 45.9039 -23.1801L46.7455 -23.1594C46.7761 -23.0875 46.7204 -22.9969 47.0653 -22.9986C47.4104 -23.0002 47.2353 -22.9314 47.1234 -22.862C47.084 -22.827 47.0071 -22.7911 46.9057 -22.7602C46.8042 -22.7294 46.6846 -22.7055 46.5669 -22.6926L45.8505 -22.6037C45.5964 -22.5699 45.3505 -22.5554 45.1398 -22.562C44.9291 -22.5685 44.7618 -22.5957 44.6562 -22.6407C44.5349 -22.6834 44.3675 -22.7123 44.1644 -22.7256C43.9054 -22.7604 43.6924 -22.8123 43.5334 -22.8791L42.522 -22.7817C42.4789 -22.8489 42.3399 -22.896 42.1285 -22.915C41.9171 -22.9341 41.6463 -22.9239 41.3618 -22.8863L40.6801 -22.8266C39.9221 -22.7614 39.7558 -22.7828 39.5339 -22.9722L40.4429 -23.3104C40.3107 -23.3994 40.1831 -23.4777 40.0555 -23.556C40.282 -23.6674 40.5841 -23.7728 40.9312 -23.8615C41.2552 -23.9567 41.5883 -24.049 41.9294 -24.1379C42.2993 -24.2287 42.69 -24.3077 43.1492 -24.4101C43.2294 -24.4432 43.3459 -24.5019 43.4947 -24.5585C43.6436 -24.6134 43.799 -24.6673 43.9603 -24.7198C43.9298 -24.7917 43.9022 -24.8564 43.961 -24.9399C43.6782 -24.9133 43.3859 -24.8667 43.1107 -24.8044C42.8354 -24.7421 42.5858 -24.666 42.3843 -24.5829C42.3505 -24.5682 42.3089 -24.5544 42.2626 -24.5424C42.2161 -24.5304 42.1659 -24.5205 42.1153 -24.5134C41.6185 -24.4623 41.381 -24.3558 41.138 -24.2251C40.9744 -24.1583 40.7635 -24.099 40.5345 -24.0554C40.0953 -23.9796 39.6653 -23.8822 39.2453 -23.7982C39.1168 -23.7702 38.9832 -23.7471 38.8501 -23.73C38.4111 -23.6755 37.9693 -23.5992 37.5472 -23.5052C37.4094 -23.4813 37.2772 -23.4496 37.1616 -23.4129C37.046 -23.3762 36.9504 -23.3354 36.8827 -23.2941C36.9873 -23.2487 37.0437 -23.1915 37.0485 -23.1259C37.0669 -23.0828 36.7586 -22.9948 36.6128 -22.9311C36.4671 -22.8674 36.7529 -22.8974 36.8499 -22.891C37.248 -22.8787 37.3219 -22.8528 37.0835 -22.7114C37.0038 -22.6669 36.9509 -22.6224 36.9282 -22.5806C36.9054 -22.5389 36.9132 -22.5007 36.951 -22.4686C37.0076 -22.3356 37.1797 -22.2264 37.2979 -22.0963C37.1144 -22.0106 36.8076 -21.9191 36.7742 -21.813C36.7581 -21.7895 36.7241 -21.7646 36.6748 -21.74C36.6254 -21.7155 36.5619 -21.692 36.4888 -21.6712C36.2961 -21.6263 36.1209 -21.5726 35.9767 -21.5143C35.8326 -21.4559 35.7234 -21.3946 35.6576 -21.3348C35.636 -21.3101 35.5841 -21.284 35.512 -21.2615C35.4399 -21.239 35.3532 -21.222 35.2691 -21.2138C35.1686 -21.2037 35.0786 -21.205 35.0177 -21.2175C34.9569 -21.23 34.9298 -21.2526 34.942 -21.2808C34.9396 -21.3337 34.9528 -21.3889 34.9818 -21.4459C34.965 -21.4854 34.9482 -21.5249 35.0146 -21.5904C34.7145 -21.5665 34.3995 -21.5186 34.1037 -21.452C33.808 -21.3853 33.5428 -21.3023 33.337 -21.2122C33.1095 -21.1189 32.8997 -21.021 32.6476 -20.9119C32.6995 -20.7897 32.6995 -20.7897 32.1629 -20.5736L29.3164 -20.4682L28.733 -20.3251C28.1889 -20.2004 28.0595 -20.2089 27.7178 -20.2734L27.4878 -20.3341C27.0047 -20.2507 26.4484 -20.1547 26.1462 -20.3109C26.0481 -20.2091 25.9841 -20.1749 26.0064 -20.1594C26.1506 -20.0092 26.4012 -19.8817 26.7483 -19.782C26.8368 -19.7587 26.8991 -19.7232 27.0022 -19.7024C27.3347 -19.5851 27.4118 -19.4038 27.2178 -19.1956C27.1215 -19.1034 26.9816 -19.0091 26.8026 -18.9156C27.0646 -18.7858 27.4116 -18.6783 27.8343 -18.5959C28.1931 -18.5321 28.4885 -18.4468 28.7122 -18.3423C28.913 -18.2369 29.2137 -18.1576 29.597 -18.1091C29.7915 -18.0885 29.9334 -18.0478 30.0086 -17.9911C30.031 -17.8376 29.9796 -17.6732 29.8554 -17.5017C29.8321 -17.4495 29.7656 -17.3931 29.6614 -17.3369C29.5571 -17.2808 29.4179 -17.2264 29.2545 -17.178C29.2545 -17.178 29.1759 -17.1413 29.1381 -17.1194C29.1066 -16.9335 29.2245 -16.7696 29.4839 -16.6389C29.5264 -16.6018 29.6133 -16.575 29.7354 -16.5614C29.8575 -16.5478 30.0101 -16.5479 30.1767 -16.5617C30.5287 -16.5838 30.8575 -16.5865 31.1979 -16.599C31.5648 -16.6166 31.8879 -16.6027 32.1333 -16.5588C32.3787 -16.515 32.5374 -16.4427 32.5926 -16.3496C32.5962 -16.3233 32.6069 -16.2981 32.6247 -16.2742C32.635 -16.2618 32.6407 -16.2486 32.6415 -16.2346L31.8597 -15.93L32.7441 -15.8086C32.7961 -15.6864 32.3716 -15.6132 32.1587 -15.5224L32.2903 -15.4718C32.4596 -15.4432 32.6877 -15.498 32.8942 -15.5297L33.0992 -15.5651L33.1236 -15.5076C33.2512 -15.4293 33.7166 -15.5173 33.8982 -15.4599C34.0797 -15.4025 33.9501 -15.3377 33.6781 -15.2753C33.489 -15.2289 33.2859 -15.192 33.0842 -15.1672C32.8824 -15.1424 32.6872 -15.1304 32.5133 -15.1322C32.4094 -15.1383 32.3233 -15.1523 32.2601 -15.1734C31.8929 -15.2629 31.4874 -15.3399 31.0464 -15.4038C30.7083 -15.4611 30.2849 -15.4855 29.806 -15.4753C29.6655 -15.4796 29.496 -15.466 29.3273 -15.4369C29.1586 -15.4078 29.0016 -15.365 28.8837 -15.3161L28.6357 -15.308C28.6357 -15.308 28.5001 -15.2576 28.5193 -15.2494C28.6137 -15.1 28.504 -14.9173 28.2065 -14.7285L28.4652 -14.7114C28.8349 -14.7289 28.6005 -14.6152 28.6557 -14.5591C28.9184 -14.5697 29.2597 -14.617 29.3842 -14.5459L29.5706 -14.5511L29.4974 -14.5385L29.4089 -14.5618L29.0612 -14.4555C29.226 -14.4376 29.3453 -14.4158 29.4908 -14.4061C29.5712 -14.3978 29.6351 -14.383 29.6789 -14.3627C29.7226 -14.3424 29.7452 -14.317 29.7453 -14.288C29.7449 -14.2434 29.7883 -14.2059 29.8712 -14.179C29.9542 -14.1521 30.074 -14.1368 30.2192 -14.1344C30.3925 -14.1335 30.4917 -14.085 30.5933 -14.0678L30.1519 -13.7756C30.1519 -13.7756 30.3714 -13.8135 30.2519 -13.762L30.2366 -13.7979L29.9692 -13.7248C29.7765 -13.6606 29.6417 -13.6451 29.5279 -13.691C29.414 -13.737 29.44 -13.6759 29.3854 -13.6935C29.4052 -13.6467 29.5291 -13.6141 29.6353 -13.5861C29.7581 -13.5641 29.8966 -13.548 30.0487 -13.5378C29.7747 -13.3324 29.7616 -13.3262 30.1618 -13.2719C30.5621 -13.2175 30.424 -13.1358 30.759 -13.1241C31.0939 -13.1125 30.7131 -12.9734 30.4889 -12.9463C30.3227 -12.9285 30.1532 -12.9007 29.9921 -12.8649C29.8311 -12.8292 29.6821 -12.7862 29.5557 -12.739L29.623 -12.5808C29.7215 -12.5939 29.8203 -12.611 29.9158 -12.6314C30.2402 -12.7182 30.5354 -12.8 30.824 -12.7495L30.6866 -12.6293L31.6941 -12.699C31.668 -12.6089 31.5144 -12.5064 31.2658 -12.4129C31.3032 -12.3616 31.3262 -12.3075 31.3346 -12.2511C31.3514 -12.2116 31.4508 -12.2365 31.5155 -12.2322C31.7463 -12.2256 31.9356 -12.1988 32.0669 -12.1542C32.1982 -12.1096 32.2675 -12.0485 32.2686 -11.9763C32.2946 -11.9152 31.94 -11.7884 31.7182 -11.7926C31.1645 -11.7804 30.5657 -11.7334 29.9543 -11.6541C29.5815 -11.6438 29.5289 -11.8045 28.9156 -11.6948C28.9034 -11.6206 28.9819 -11.5606 29.1394 -11.5237C29.2968 -11.4868 29.5245 -11.4752 29.7882 -11.4904C29.6383 -11.3257 28.808 -11.2827 28.7713 -11.1105C28.978 -11.1226 29.1991 -11.1513 29.4126 -11.1935C29.6262 -11.2358 29.8248 -11.2902 29.9887 -11.3514C30.0242 -11.3665 30.0686 -11.3804 30.118 -11.3919C30.1673 -11.4033 30.2201 -11.4119 30.2712 -11.4169C30.3224 -11.4219 30.3703 -11.4231 30.4106 -11.4204C30.451 -11.4176 30.4823 -11.4111 30.5018 -11.4014C30.3869 -11.3391 30.2603 -11.2671 30.1161 -11.1998C29.9719 -11.1325 29.9372 -11.1033 29.8332 -11.0892C29.0573 -10.9553 28.6884 -10.7142 28.0172 -10.5559C27.8415 -10.5256 27.8196 -10.4293 27.9722 -10.4401C28.1172 -10.451 28.2486 -10.4496 28.3515 -10.436C28.4544 -10.4224 28.5249 -10.3972 28.5549 -10.3632C28.6675 -10.3235 28.8077 -10.292 28.972 -10.2693C28.2836 -10.0218 27.4628 -9.8032 26.5866 -9.63389C26.4207 -9.60043 26.2476 -9.58003 26.0928 -9.57569C25.6037 -9.57544 25.0847 -9.5558 24.5463 -9.51717C24.3553 -9.50663 24.1789 -9.50762 24.0265 -9.52007C23.5268 -9.5496 23.13 -9.48498 22.7675 -9.30282L22.1675 -9.01409C22.1874 -8.96736 22.2881 -8.91529 22.3656 -8.84379L21.8969 -8.68961L18.3203 -9.0447L17.6023 -8.70088L16.5727 -8.72C16.4938 -8.71007 16.4145 -8.69638 16.3385 -8.67958C16.1303 -8.57806 15.9675 -8.48052 15.7415 -8.38365C15.5156 -8.28679 15.112 -8.27503 14.8306 -8.16088C14.5492 -8.04672 14.2673 -8.04439 13.919 -7.97657C13.8863 -7.88821 13.9201 -7.80867 14.0184 -7.74293C14.0505 -7.66745 14.2275 -7.62082 14.2581 -7.54893C14.2547 -7.47628 14.3205 -7.41459 14.4494 -7.36947C14.5784 -7.32435 14.7664 -7.29722 14.9965 -7.29054C15.6409 -7.13584 16.418 -7.02568 17.3042 -6.96339C17.3821 -6.95887 17.4466 -6.94841 17.4939 -6.93267C17.5411 -6.91693 17.57 -6.89624 17.5789 -6.87188C17.5777 -6.80137 17.6367 -6.74043 17.7518 -6.69353C17.8669 -6.64664 18.0352 -6.61498 18.2442 -6.60086C18.2998 -6.59803 18.3418 -6.58917 18.3649 -6.5754C18.4442 -6.56652 18.502 -6.54953 18.5326 -6.52606C18.5633 -6.5026 18.5657 -6.47344 18.5398 -6.44144C18.514 -6.40943 18.4606 -6.37565 18.3849 -6.34335C18.3091 -6.31105 18.2136 -6.28132 18.1075 -6.25704C17.9537 -6.21795 17.7965 -6.18052 17.6367 -6.14493C17.6458 -6.12336 17.8044 -6.11986 17.7813 -6.10043C17.7187 -6.03841 17.7042 -5.98032 17.7389 -5.93073C17.7736 -5.88114 17.8567 -5.84143 17.9814 -5.81473L17.1266 -5.31227C16.6078 -5.24266 16.0988 -5.12463 15.6963 -4.98057C15.6958 -4.95698 15.7189 -4.93719 15.7635 -4.92321C15.808 -4.90923 15.8724 -4.90155 15.9502 -4.90092C16.1588 -4.89062 16.3559 -4.87062 16.5807 -4.85926C16.7182 -4.85076 16.8325 -4.83208 16.9172 -4.8043C17.0018 -4.77652 17.0551 -4.74019 17.0738 -4.69742L16.572 -4.5105C16.7328 -4.46494 16.852 -4.44308 16.9582 -4.4151C16.8981 -4.35636 16.7946 -4.2956 16.6558 -4.23753C16.517 -4.17946 16.3466 -4.12563 16.1578 -4.08022C16.1072 -4.07086 16.0556 -4.06401 16.006 -4.06009C15.9564 -4.05617 15.9098 -4.05524 15.869 -4.05738C15.4803 -4.12149 15.0256 -4.00831 14.584 -3.90124C14.1424 -3.79417 13.9027 -3.72966 13.5767 -3.64639L12.9529 -3.63521C12.795 -3.59579 12.6542 -3.54944 12.5415 -3.49986C12.4289 -3.45027 12.3477 -3.39885 12.3044 -3.34968C12.338 -3.2706 12.6339 -3.31394 12.8102 -3.30578C13.2285 -3.25656 13.7785 -3.26706 14.3689 -3.33554C14.5153 -3.3608 14.6654 -3.34041 14.8079 -3.33798C15.1152 -3.32815 15.4105 -3.31213 15.6925 -3.29C15.8783 -3.26942 16.0518 -3.24395 16.2121 -3.21375C16.2549 -3.11311 15.5809 -3.03538 15.9634 -2.98565C15.8317 -2.96291 15.7823 -2.93124 15.7146 -2.94271C15.2806 -2.87735 14.853 -2.84503 14.4814 -2.84952C13.7683 -2.8634 12.9585 -2.81754 12.1184 -2.71569C11.2116 -2.61018 10.3417 -2.56588 9.58057 -2.58643C9.29067 -2.58763 8.96663 -2.56603 8.63318 -2.52327C8.23937 -2.46402 7.84831 -2.42678 7.4854 -2.41395C7.36524 -2.41349 7.23135 -2.40341 7.09467 -2.38452C6.95798 -2.36562 6.82235 -2.33845 6.69881 -2.30522C6.70951 -2.28006 6.82726 -2.2618 6.80105 -2.24955C6.42543 -2.06127 6.27314 -1.86523 5.69498 -1.67286C5.29971 -1.60466 4.84589 -1.52635 4.58743 -1.61679C4.32897 -1.70723 4.42159 -1.78494 4.93596 -2.01646C4.82432 -2.01979 4.68989 -2.00898 4.55611 -1.98589C4.42233 -1.96281 4.29771 -1.92892 4.204 -1.89015L3.75914 -1.71693L3.35819 -1.55129C3.39336 -1.46861 3.42088 -1.40391 3.44993 -1.33562C3.49581 -1.26308 3.44545 -1.17479 3.30591 -1.08313C3.22171 -1.03308 3.14842 -0.983036 3.08671 -0.933416C2.83606 -0.734993 2.76348 -0.547449 2.87709 -0.391812C3.09482 -0.168036 3.39798 0.0378546 3.78312 0.2235C4.18992 0.404089 4.41256 0.631892 4.74769 0.828707C4.91865 0.918326 5.12628 0.998657 5.36838 1.06885C5.82764 1.22495 6.3308 1.37348 6.79159 1.53318C7.25238 1.69288 7.77263 1.80759 8.28432 1.93922C9.04623 2.09543 9.86978 2.23034 10.7504 2.34321C11.2953 2.44209 11.8549 2.53845 12.3589 2.6521C12.9542 2.78021 13.6536 2.87222 14.4396 2.92582C15.1338 2.98998 15.754 3.08487 16.2884 3.20867C16.3445 3.22206 16.3887 3.2391 16.4199 3.25929C16.5161 3.38554 16.7858 3.47451 17.1877 3.51263C17.1633 3.54959 17.1321 3.58717 17.0942 3.62523C17.0384 3.67057 17.0268 3.713 17.0609 3.74702C17.0949 3.78103 17.1731 3.80508 17.2853 3.81602C17.6068 3.84729 17.874 3.9004 18.0749 3.97299C18.1488 3.9912 18.1945 4.01773 18.2084 4.05028C18.2222 4.08284 18.2037 4.12045 18.1545 4.1599C18.1108 4.20051 18.1076 4.23787 18.1453 4.26714C18.1829 4.29641 18.2597 4.31624 18.3657 4.32408C18.6378 4.36251 18.9292 4.39343 19.2379 4.41664C19.8949 4.46783 20.659 4.46722 21.4842 4.41485C21.5721 4.39969 21.6605 4.42301 21.763 4.40532C22.3466 4.34664 22.8885 4.33755 23.3233 4.37916C23.833 4.39537 24.3659 4.39215 24.9034 4.39972C25.68 4.39464 26.3963 4.4255 27.0324 4.49147C27.7596 4.42773 28.1682 4.53856 28.7819 4.54069C29.3485 4.55207 29.8856 4.57938 30.388 4.62236C31.198 4.67936 32.0049 4.72918 32.8032 4.79591C33.5522 4.82773 34.2418 4.88851 34.8603 4.97724C35.0974 5.01735 35.5265 4.95488 35.6879 5.03891C35.8494 5.12294 36.1752 5.11302 36.4385 5.14089L37.2692 5.20975C37.412 5.22613 37.5691 5.23652 37.738 5.24074C38.5104 5.24636 39.0453 5.35855 39.7621 5.38146L39.8354 5.36883C41.1082 5.53561 42.5648 5.62716 44.1623 5.64075C45.0955 5.69193 46.1159 5.68947 47.1061 5.72695C47.3423 5.80194 47.9001 5.70955 48.1964 5.77803C48.4926 5.84651 48.9764 5.80162 49.3583 5.81288C49.7403 5.82414 50.1136 5.85231 50.5218 5.85133C50.8762 5.85165 51.1755 5.88223 51.3925 5.9403C51.8876 6.03628 52.4912 6.09271 53.1762 6.10706C54.0825 6.13201 54.9394 6.18863 55.8613 6.17617C55.8481 6.24613 55.9046 6.30564 56.0251 6.34859C56.1456 6.39155 56.3256 6.41639 56.5467 6.42058C57.5323 6.44727 58.4261 6.51681 59.4249 6.53738L59.6921 6.53758L62.6791 6.57773C63.4838 6.58548 64.2592 6.59829 65.0801 6.60712C65.3875 6.55407 65.395 6.64538 65.6076 6.62799C65.667 6.58301 65.7371 6.56319 65.8418 6.58757L65.8647 6.64148L69.2736 6.71301C70.6083 6.76531 72.0123 6.781 73.4735 6.75994C73.8202 6.76522 74.1437 6.78309 74.439 6.81325C74.7128 6.82426 74.9982 6.82912 75.2937 6.82781C75.6934 6.81423 76.0838 6.80738 76.4636 6.80728C77.4623 6.82786 78.5104 6.81676 79.604 6.80168C80.6975 6.7866 81.526 6.81339 82.4994 6.81133C83.1586 6.80947 83.8148 6.80043 84.4971 6.77914C84.8229 6.76922 85.2243 6.71539 85.5616 6.69575C85.899 6.67612 86.0091 6.67641 86.0537 6.70731C86.2005 6.79386 86.5696 6.7379 86.8645 6.72944C87.4398 6.71505 87.5215 6.68551 87.6778 6.46178L86.9719 6.39068C86.7989 6.36773 86.5813 6.3637 86.3401 6.37897C86.0988 6.39424 85.8421 6.4283 85.5947 6.47786C85.4973 6.4991 85.3955 6.51588 85.2951 6.52724C85.1948 6.53859 85.0978 6.5443 85.01 6.54402C84.2977 6.53189 83.5954 6.50646 82.9109 6.48568L82.8108 6.47208L82.8046 6.27254C82.8951 6.25296 82.989 6.23675 83.0827 6.22455L86.5161 6.09507C87.304 6.06329 88.1221 5.99157 88.8953 5.96231C89.6686 5.93305 90.0852 5.91517 90.6852 5.88494C90.9384 5.86772 91.1965 5.8451 91.4578 5.81722C91.4427 5.798 91.434 5.77757 91.4318 5.75612C91.418 5.72377 91.3997 5.68063 91.5107 5.64604C91.6318 5.59721 91.7936 5.55551 91.9639 5.52926C92.1238 5.51192 92.2789 5.50211 92.4229 5.50021C93.1192 5.48349 93.9146 5.37809 94.6394 5.20648L94.8924 5.32101C95.9807 5.25668 97.0852 5.19341 98.222 5.13228C98.4496 5.11561 98.6885 5.08362 98.9208 5.03871C99.1696 4.99576 99.3986 4.90609 99.6606 4.85703C99.9195 4.82172 100.177 4.79418 100.427 4.77492C100.359 4.74545 100.27 4.72189 100.162 4.70499C100.055 4.69906 99.9776 4.68065 99.9401 4.65242C99.9027 4.62419 99.9073 4.58762 99.9534 4.548C100.034 4.47999 100.07 4.41597 99.8938 4.40781C99.7309 4.39231 99.6143 4.35874 99.5578 4.31106C99.5014 4.26339 99.5074 4.20358 99.5751 4.13872C99.6047 4.1008 99.6257 4.06368 99.6378 4.02758L99.711 4.01495C99.9524 3.88069 100.435 3.83221 100.781 3.72232C100.944 3.69046 101.113 3.67214 101.261 3.67024C101.644 3.64662 102.017 3.63632 102.413 3.60658C102.602 3.59291 102.8 3.56796 102.995 3.53322C103.273 3.48522 103.302 3.48017 103.463 3.30569C103.213 3.30874 103.014 3.28267 102.901 3.2319C102.787 3.18114 102.767 3.10878 102.842 3.02709C103.049 2.84862 103.268 2.66044 104.204 2.53365C103.898 2.52739 103.605 2.51497 103.324 2.49646C103.242 2.49246 103.181 2.47935 103.148 2.45888C103.116 2.4384 103.113 2.41154 103.142 2.38188C103.17 2.35223 103.228 2.32119 103.307 2.29293C103.386 2.26467 103.483 2.24054 103.585 2.22376C104.079 2.1228 104.594 2.05523 105.073 2.02865C105.477 2.01689 105.841 2.02349 106.312 2.02318L106.868 1.92719C106.859 1.90562 106.941 1.87609 106.92 1.86424C106.779 1.75359 106.623 1.64546 106.462 1.52656C106.719 1.46235 106.941 1.38485 107.103 1.3029C107.266 1.22096 107.362 1.1379 107.381 1.06324C107.395 1.04072 107.391 1.0202 107.37 1.00312C107.349 0.986049 107.312 0.972846 107.26 0.964446C107.114 0.950006 107.001 0.922428 106.93 0.883823C106.859 0.845221 106.832 0.79663 106.851 0.741793L107.284 0.539816C108.586 0.395703 109.866 0.292741 111.098 0.232843L112.21 0.18755C112.344 0.133531 112.302 0.109827 112.176 0.108469C112.05 0.107114 111.695 0.122081 111.447 0.130153C111.233 0.140747 111.042 0.133791 110.895 0.109949C110.747 0.086107 110.646 0.0461873 110.603 -0.00593477L110.977 -0.236279C110.958 -0.27941 110.932 -0.340521 110.73 -0.336438C110.591 -0.341431 110.489 -0.363144 110.44 -0.398073C110.391 -0.433002 110.398 -0.479105 110.459 -0.528973C110.469 -0.565039 110.455 -0.597885 110.418 -0.626023C110.118 -0.62835 109.82 -0.627081 109.549 -0.638052C109.422 -0.641693 109.315 -0.655051 109.235 -0.677213C109.155 -0.699371 109.104 -0.729812 109.085 -0.766471C109.076 -0.802251 109.099 -0.843011 109.155 -0.885452C109.211 -0.927895 109.297 -0.970834 109.406 -1.01081C109.832 -1.06026 110.221 -1.06089 110.489 -1.01258C110.585 -0.974714 110.738 -0.954024 110.929 -0.953246C111.12 -0.952472 111.34 -0.971644 111.56 -1.00823C111.811 -1.05041 112.062 -1.06895 112.267 -1.06051C112.472 -1.05207 112.618 -1.01721 112.679 -0.9622C112.937 -0.983578 113.166 -0.999906 113.392 -1.02342C113.658 -1.05309 113.91 -1.06182 114.119 -1.04869C114.455 -1.03942 114.817 -1.04485 115.197 -1.06485C116.291 -1.1148 117.387 -1.16117 118.447 -1.18198C118.727 -1.18791 118.97 -1.17189 119.247 -1.18501C119.524 -1.19813 119.744 -1.16267 120.091 -1.23409C120.157 -1.24518 120.223 -1.25231 120.285 -1.25491C120.346 -1.25751 120.401 -1.2555 120.446 -1.24906C121.054 -1.19258 121.768 -1.1846 122.545 -1.22559C123.61 -1.23562 124.713 -1.26401 125.779 -1.27045C126.092 -1.26491 126.387 -1.25006 126.662 -1.22606C126.872 -1.21156 127.091 -1.20174 127.319 -1.19664C127.494 -1.19208 127.661 -1.2055 127.632 -1.1271C127.602 -1.0487 127.864 -1.09776 128.015 -1.11224C128.534 -1.15026 129.064 -1.20172 129.6 -1.26606C130.127 -1.33598 130.645 -1.37666 131.12 -1.38568C131.464 -1.39093 131.818 -1.37102 132.259 -1.47809C132.242 -1.51763 132.226 -1.55717 132.13 -1.59846C132.49 -1.71205 132.901 -1.8098 133.328 -1.88359C133.756 -1.95739 134.188 -2.00513 134.589 -2.02285L135.142 -2.23785C135.278 -2.2631 135.417 -2.28148 135.55 -2.29189C135.684 -2.3023 135.808 -2.30451 135.917 -2.29839C136.002 -2.29528 136.104 -2.30327 136.206 -2.3209C136.309 -2.33853 136.404 -2.36463 136.474 -2.39439C136.579 -2.43225 136.707 -2.4649 136.842 -2.48827C136.978 -2.51163 137.114 -2.52467 137.235 -2.52575C137.615 -2.54913 138.02 -2.60312 138.41 -2.68218C138.511 -2.72853 138.574 -2.77642 138.592 -2.81994C138.61 -2.86346 138.581 -2.9007 138.51 -2.92708C138.395 -2.97368 138.33 -3.03304 138.32 -3.10157C138.31 -3.1701 138.354 -3.24637 138.45 -3.32578C138.5 -3.37453 138.516 -3.42068 138.499 -3.46145C138.481 -3.50223 138.431 -3.53677 138.349 -3.56301C138.046 -3.68434 138.127 -3.75235 138.623 -3.95365C138.704 -3.98721 138.801 -4.01858 138.908 -4.04576C139.016 -4.07294 139.131 -4.09533 139.248 -4.11153C139.52 -4.14433 139.789 -4.16874 140.049 -4.18431C140.196 -4.20957 140.346 -4.18918 140.515 -4.19899C141.358 -4.24807 141.481 -4.32724 141.755 -4.49784L141.954 -4.62094C142.323 -4.72064 142.727 -4.80345 143.136 -4.8634C143.545 -4.92334 143.95 -4.95893 144.32 -4.9676C144.468 -4.96826 144.637 -4.98529 144.803 -5.01609C145.341 -5.11029 145.887 -5.17546 146.403 -5.20731C146.724 -5.22525 147.071 -5.27164 147.401 -5.34092C147.731 -5.41021 148.031 -5.49944 148.264 -5.59789C148.473 -5.68658 148.747 -5.76619 149.047 -5.82562C149.398 -5.88625 149.431 -5.95745 149.234 -6.01234C149.038 -6.06722 148.71 -6.13784 148.418 -6.19554C148.316 -6.21515 148.254 -6.24704 148.236 -6.28766C148.219 -6.32828 148.248 -6.37603 148.32 -6.42559C148.366 -6.5104 148.374 -6.59087 148.344 -6.66506C148.328 -6.69589 148.339 -6.73124 148.377 -6.76873C148.415 -6.80622 148.479 -6.84497 148.564 -6.88237C148.649 -6.91977 148.754 -6.95494 148.872 -6.98553C148.989 -7.01612 149.116 -7.04141 149.245 -7.05969C149.786 -7.15316 150.313 -7.2441 150.866 -7.31241C151.097 -7.3446 151.328 -7.3845 151.554 -7.43114C152.015 -7.54647 152.508 -7.64211 153.005 -7.71251C153.241 -7.74398 153.472 -7.79902 153.647 -7.86572C154.201 -8.04539 154.711 -8.2343 155.168 -8.42902C155.278 -8.48942 155.422 -8.54834 155.591 -8.60209C155.76 -8.65584 155.951 -8.70325 156.151 -8.74137C156.312 -8.76916 156.443 -8.83036 156.567 -8.87107C156.657 -8.96534 156.667 -9.05255 156.595 -9.12451C156.523 -9.19648 156.372 -9.25083 156.156 -9.28248C155.951 -9.32046 155.76 -9.36457 155.583 -9.4112C155.369 -9.4489 155.116 -9.47154 154.831 -9.4783C154.494 -9.49854 154.245 -9.55639 154.116 -9.64431C155.039 -9.80346 155.916 -10.032 156.724 -9.97855L157.338 -10.1231C157.314 -10.1806 157.293 -10.231 157.273 -10.2777C157.127 -10.3627 157.081 -10.47 157.14 -10.5904C157.188 -10.6486 157.184 -10.7016 157.127 -10.744C157.07 -10.7864 156.963 -10.8167 156.817 -10.8318C155.95 -10.9869 154.947 -11.0916 154.133 -11.2677C153.878 -11.3007 153.579 -11.3157 153.25 -11.312C152.931 -11.3226 152.945 -11.4021 153.311 -11.5001C153.517 -11.5513 153.727 -11.6004 153.94 -11.6472C154.88 -11.655 155.262 -11.4201 156.335 -11.4855L156.832 -11.795C156.966 -11.7998 157.096 -11.8017 157.222 -11.8007L159.02 -11.6749C159.169 -11.6686 159.286 -11.6471 159.356 -11.6128C159.426 -11.5785 159.447 -11.5329 159.417 -11.481C159.404 -11.4175 159.429 -11.3593 159.49 -11.3085C159.529 -11.2729 159.504 -11.2255 159.42 -11.1768C159.231 -11.0671 159.474 -11.051 159.627 -11.0234C159.666 -11.0207 159.711 -11.021 159.76 -11.0243C159.808 -11.0275 159.859 -11.0337 159.909 -11.0424C159.96 -11.0511 160.009 -11.0621 160.053 -11.0749C160.098 -11.0877 160.137 -11.102 160.168 -11.1169C160.438 -11.2213 160.674 -11.3315 160.94 -11.4467C160.751 -11.557 160.973 -11.738 160.679 -11.8378C160.646 -11.8577 160.633 -11.882 160.64 -11.9091C160.648 -11.9363 160.675 -11.9657 160.722 -11.9956C160.842 -12.0729 160.899 -12.1482 160.887 -12.2139C160.876 -12.2797 160.796 -12.3336 160.657 -12.3702L160.64 -12.4098C161.008 -12.5427 160.91 -12.6609 161.055 -12.8016L161.408 -12.8935C162.289 -13.1148 162.29 -13.1112 163.048 -13.1031C163.201 -13.1873 163.007 -13.2001 162.861 -13.2097L161.642 -13.3042C160.845 -13.3673 160.025 -13.411 159.135 -13.4349C158.245 -13.4588 157.253 -13.5383 156.333 -13.5956C156.286 -13.6001 156.251 -13.6089 156.229 -13.6212C156.207 -13.6336 156.2 -13.6492 156.208 -13.6668C156.245 -13.6857 156.293 -13.704 156.348 -13.7203C156.404 -13.7366 156.466 -13.7504 156.53 -13.7608C156.822 -13.8113 157.123 -13.8439 157.435 -13.8861L158.017 -13.9595L158.195 -14.056C158.312 -14.1147 158.391 -14.1863 158.546 -14.2284C158.674 -14.2599 158.813 -14.2837 158.948 -14.2976C159.083 -14.3114 159.209 -14.3146 159.314 -14.3069C159.605 -14.2877 159.869 -14.2598 160.147 -14.2345C160.425 -14.2091 160.578 -14.1815 160.819 -14.1691C161.308 -14.1635 161.782 -14.1485 162.236 -14.1244C162.619 -14.0672 162.974 -13.9994 163.297 -13.9215C163.498 -13.8907 163.687 -13.8538 164.031 -13.894C164.195 -13.9304 164.336 -13.9782 164.429 -14.0289C164.523 -14.0796 164.563 -14.13 164.542 -14.1711C164.524 -14.2034 164.471 -14.2289 164.39 -14.2452C164.309 -14.2616 164.201 -14.2683 164.078 -14.2647C163.732 -14.2706 163.413 -14.2905 163.126 -14.3241C162.726 -14.3849 162.239 -14.4111 161.694 -14.4012C161.509 -14.3925 161.386 -14.4251 161.224 -14.4358C161.062 -14.4465 160.925 -14.473 160.745 -14.4535C160.185 -14.4031 159.916 -14.4803 159.581 -14.5304C159.467 -14.5526 159.397 -14.5885 159.377 -14.6342C159.358 -14.6798 159.39 -14.7335 159.471 -14.7892C159.626 -14.9001 159.815 -15.0117 160.036 -15.1221C160.15 -15.1764 160.296 -15.2279 160.462 -15.2727C160.628 -15.3175 160.811 -15.3543 160.995 -15.3802C161.105 -15.4481 161.164 -15.5149 161.166 -15.5746C161.168 -15.6342 161.113 -15.6848 161.007 -15.7217C160.735 -15.806 160.494 -15.8918 159.886 -15.8447C159.6 -15.8267 159.331 -15.8232 159.089 -15.8345C158.553 -15.8499 157.934 -15.8162 157.292 -15.7366C157.126 -15.7162 156.962 -15.7023 156.807 -15.6953C155.696 -15.6464 154.638 -15.622 153.577 -15.6048C153.015 -15.5965 152.448 -15.599 151.861 -15.5749C150.485 -15.5226 149.232 -15.5495 147.903 -15.5325C147.208 -15.5237 146.585 -15.559 146.068 -15.6363C145.967 -15.6622 145.881 -15.6925 145.809 -15.7267C146.152 -15.8166 146.528 -15.8878 146.902 -15.9334C147.276 -15.979 147.636 -15.9976 147.946 -15.9873C148.116 -15.9622 148.336 -15.9576 148.582 -15.9741C148.827 -15.9905 149.088 -16.0274 149.336 -16.0806L148.616 -16.1107C148.138 -16.1248 147.65 -16.1292 147.185 -16.1494C146.448 -16.1841 145.764 -16.2398 145 -16.2623C144.383 -16.283 143.832 -16.336 143.362 -16.4195C143.023 -16.4804 142.635 -16.5236 142.207 -16.5481C141.903 -16.5613 141.903 -16.5613 141.709 -16.6859C141.863 -16.7665 142.062 -16.7778 142.25 -16.7794C143.377 -16.8301 144.449 -16.839 145.445 -16.8059C145.947 -16.8029 146.393 -16.7687 146.76 -16.7049C146.85 -16.678 147.081 -16.6908 147.265 -16.6995C147.845 -16.7128 148.399 -16.709 148.92 -16.688C149.641 -16.653 150.445 -16.6613 151.298 -16.7125C151.46 -16.7752 151.274 -16.77 151.265 -16.7916C150.603 -16.8318 149.955 -16.8781 149.281 -16.9122C149.096 -16.9244 148.899 -16.9304 148.692 -16.9302C147.917 -16.909 147.271 -16.9676 146.845 -17.0976C146.823 -17.1479 146.543 -17.142 146.419 -17.1746C146.358 -17.2029 146.318 -17.2362 146.299 -17.2734C146.479 -17.3663 146.683 -17.3668 146.84 -17.3669C147.296 -17.3566 147.735 -17.3369 148.154 -17.3081C148.543 -17.2806 148.975 -17.2733 149.436 -17.2862C149.776 -17.2987 150.067 -17.2795 150.411 -17.2847C150.597 -17.2958 150.79 -17.3135 150.985 -17.3376C150.768 -17.4023 150.472 -17.4421 150.119 -17.4542C149.851 -17.4929 149.516 -17.5045 149.473 -17.6052C149.6 -17.6772 149.74 -17.6783 149.854 -17.6709C150.089 -17.6711 150.317 -17.6666 150.535 -17.6573C150.998 -17.6368 151.499 -17.6365 152.028 -17.6564C152.307 -17.6639 152.571 -17.6616 152.817 -17.6497C153.374 -17.6339 153.907 -17.5987 154.417 -17.5825C155.461 -17.5659 156.413 -17.5064 157.417 -17.4751C157.64 -17.4673 157.84 -17.4401 158.135 -17.487C158.429 -17.534 158.442 -17.5401 158.477 -17.5692C158.559 -17.6179 158.584 -17.665 158.546 -17.7009C158.488 -17.7344 158.374 -17.753 158.225 -17.7535C157.329 -17.8068 156.478 -17.8817 155.679 -17.9777C155.327 -17.9969 155.019 -18.0361 154.765 -18.0939C154.564 -18.1338 154.325 -18.1601 154.056 -18.1722C153.665 -18.201 153.257 -18.2221 152.835 -18.2354C152.638 -18.2426 152.471 -18.2639 152.343 -18.2982C152.215 -18.3324 152.129 -18.3789 152.09 -18.4349L152.608 -18.6207C152.689 -18.6294 152.77 -18.6369 152.85 -18.6432L157.15 -18.5093L157.576 -18.5056C158.042 -18.5167 158.156 -18.5441 158.599 -18.7594C157.589 -18.81 156.794 -18.9577 156.295 -19.1876C156.415 -19.2123 156.538 -19.2335 156.661 -19.2507C157.469 -19.3051 158.232 -19.3195 158.922 -19.2935C159.331 -19.2909 159.753 -19.298 160.175 -19.3015C160.052 -19.4075 159.578 -19.3759 159.269 -19.3998C158.532 -19.4372 157.879 -19.5144 157.333 -19.629C157.145 -19.6737 156.91 -19.7023 156.637 -19.7134C156.365 -19.7173 156.138 -19.7443 155.975 -19.7922C155.812 -19.8401 155.719 -19.9074 155.703 -19.9883C155.678 -20.0614 155.623 -20.1295 155.539 -20.1913C155.687 -20.279 155.923 -20.363 156.203 -20.4275C156.482 -20.492 156.785 -20.5326 157.055 -20.5417C157.632 -20.5778 158.23 -20.637 158.835 -20.7176C159.136 -20.7583 159.431 -20.7816 159.701 -20.7861C159.939 -20.7896 160.21 -20.8189 160.472 -20.8697C160.734 -20.9205 160.973 -20.99 161.153 -21.0675C161.395 -21.1633 161.621 -21.2601 161.847 -21.357C162.073 -21.4539 162.335 -21.5763 162.599 -21.6951C162.831 -21.7137 163.058 -21.7256 163.275 -21.7308C163.444 -21.7264 163.641 -21.7393 163.843 -21.7681C164.046 -21.7968 164.244 -21.8401 164.416 -21.8929C164.315 -21.945 164.201 -21.9909 164.081 -22.0513C164.246 -22.1309 164.365 -22.2122 164.432 -22.29C164.499 -22.3679 164.512 -22.4408 164.47 -22.5042C164.446 -22.5617 164.625 -22.6582 164.687 -22.7344C164.766 -22.8002 164.781 -22.8615 164.729 -22.9104C164.678 -22.9594 164.562 -22.9936 164.397 -23.0086C164.193 -23.0362 164.026 -23.0779 163.905 -23.1319C163.864 -23.1459 163.844 -23.1651 163.845 -23.1878C163.846 -23.2104 163.869 -23.2357 163.911 -23.2614C163.953 -23.2871 164.014 -23.3124 164.087 -23.3349C164.16 -23.3574 164.243 -23.3765 164.329 -23.3903C164.592 -23.4296 164.854 -23.4551 165.098 -23.4653C165.52 -23.484 165.924 -23.4958 166.309 -23.5006C166.736 -23.5078 167.21 -23.5524 167.684 -23.6298C168.109 -23.7031 168.489 -23.7687 168.697 -23.9087C168.904 -24.0487 169.236 -24.0443 169.492 -24.1462C169.348 -24.238 169.093 -24.3019 168.753 -24.3312C168.53 -24.3417 168.344 -24.3692 168.207 -24.412C168.07 -24.4547 167.984 -24.5118 167.956 -24.5795L168.731 -24.8637C169.349 -24.9975 169.692 -24.8945 170.36 -24.9481L169.672 -25.053C169.658 -25.0634 169.653 -25.0756 169.656 -25.089C169.723 -25.3012 169.83 -25.3465 170.534 -25.4642L170.929 -25.5324L171.555 -25.6133C171.655 -25.6568 171.724 -25.7022 171.756 -25.7448C171.787 -25.7875 171.78 -25.826 171.734 -25.8565C171.642 -25.9078 171.614 -25.9733 171.653 -26.047C171.714 -26.0959 171.719 -26.1409 171.667 -26.1743C171.616 -26.2077 171.511 -26.2273 171.371 -26.2298C171.259 -26.2337 171.251 -26.2902 171.19 -26.3221C171.13 -26.3662 171.027 -26.4 170.887 -26.4212C170.748 -26.4425 170.576 -26.4507 170.384 -26.4453C169.815 -26.4409 169.281 -26.4574 168.791 -26.4946L168.879 -26.5098C168.368 -26.4771 167.891 -26.4732 167.47 -26.4981C167.048 -26.5294 166.506 -26.5093 166.058 -26.5285C165.693 -26.5241 165.416 -26.5675 165.284 -26.6495C165.156 -26.7278 164.693 -26.7095 164.338 -26.6945C164.127 -26.6849 163.924 -26.6808 163.73 -26.6823C163.47 -26.7 163.144 -26.6833 162.807 -26.635C162.706 -26.6201 162.607 -26.6122 162.518 -26.6121C161.663 -26.5918 160.809 -26.5679 159.965 -26.5573C159.77 -26.5634 159.541 -26.5494 159.306 -26.5169C159.207 -26.5029 159.111 -26.497 159.03 -26.5002C157.697 -26.5324 156.192 -26.4502 154.884 -26.4947C154.726 -26.5052 154.55 -26.5074 154.363 -26.5012C153.942 -26.4751 153.576 -26.4919 153.321 -26.5491C153.184 -26.5795 153.007 -26.5962 152.804 -26.5983C152.6 -26.6003 152.373 -26.5876 152.138 -26.5609C151.746 -26.5255 151.384 -26.5217 151.09 -26.5498C150.516 -26.5757 149.913 -26.5864 149.285 -26.5817C149.092 -26.5772 148.923 -26.5873 148.79 -26.6112C148.657 -26.6351 148.564 -26.6722 148.519 -26.7197C148.673 -26.8003 148.842 -26.8101 149.002 -26.803C149.623 -26.8214 150.242 -26.8434 150.851 -26.852C151.396 -26.8767 151.919 -26.8843 152.413 -26.8746C152.658 -26.8636 152.963 -26.8886 153.263 -26.9442C153.63 -27.0145 154.009 -27.0494 154.322 -27.0419C154.553 -27.0401 154.798 -27.0461 155.052 -27.06C155.215 -27.0768 155.382 -27.1055 155.536 -27.1434C155.597 -27.1598 155.663 -27.1736 155.73 -27.1839C155.798 -27.1942 155.865 -27.2008 155.928 -27.2033C155.99 -27.2057 156.047 -27.204 156.094 -27.1981C156.141 -27.1923 156.177 -27.1825 156.2 -27.1693C156.435 -27.0594 156.962 -27.1155 157.412 -27.1277C158.087 -27.3136 158.59 -27.2036 159.221 -27.3086C159.271 -27.3156 159.32 -27.3198 159.365 -27.321C159.411 -27.3222 159.451 -27.3203 159.485 -27.3156C160.706 -27.2524 162.129 -27.3051 163.412 -27.2832C163.553 -27.28 163.717 -27.291 163.885 -27.3148C164.984 -27.4725 166.041 -27.5173 166.849 -27.4404C166.947 -27.4335 167.059 -27.4332 167.179 -27.4395C167.732 -27.5022 168.26 -27.5272 168.72 -27.5124C169.44 -27.5172 170.134 -27.5133 170.866 -27.5278C171.371 -27.5484 171.814 -27.5264 172.15 -27.4639C172.161 -27.4388 172.385 -27.4659 172.557 -27.4685C172.656 -27.5318 172.741 -27.5891 172.843 -27.6452C172.934 -27.7147 173.07 -27.785 173.243 -27.8513C173.415 -27.9177 173.62 -27.9786 173.842 -28.0298C174.223 -28.0955 174.261 -28.1908 173.995 -28.2259C173.308 -28.3419 172.445 -28.3894 171.468 -28.3649C170.652 -28.3629 169.821 -28.3584 168.993 -28.3467C168.51 -28.3367 168.001 -28.3145 167.532 -28.3106C167.373 -28.302 167.21 -28.2894 167.045 -28.2729C166.842 -28.2489 166.645 -28.2358 166.464 -28.2344C165.884 -28.2546 165.237 -28.237 164.553 -28.1825C164.303 -28.1706 164.062 -28.1666 163.836 -28.1705C163.299 -28.1853 162.717 -28.1744 162.105 -28.1381C161.725 -28.1176 161.356 -28.1069 161.003 -28.1061C160.878 -28.1039 160.777 -28.1211 160.656 -28.1081C159.599 -27.9718 158.85 -28.0702 157.898 -28.0178C157.435 -28.0032 156.993 -28.0032 156.578 -28.0177C155.768 -28.017 154.935 -28.0021 154.083 -27.973C152.956 -27.9252 151.912 -27.9417 150.836 -27.922C150.623 -27.9179 150.418 -27.9186 150.222 -27.9241C149.267 -27.9609 148.23 -27.9531 147.136 -27.9009C146.888 -27.8934 146.665 -27.9026 146.481 -27.928C146.297 -27.9534 146.156 -27.9943 146.068 -28.0484C146.03 -28.0855 146.055 -28.1336 146.136 -28.1836C146.271 -28.2474 146.424 -28.3099 146.591 -28.3701L152.681 -28.5722C152.936 -28.5827 153.186 -28.5884 153.428 -28.5892C154.139 -28.5909 154.872 -28.6066 155.623 -28.6362C156.366 -28.664 157.075 -28.6591 157.794 -28.6675C158.006 -28.6703 158.224 -28.6769 158.446 -28.6873C159.948 -28.7697 161.412 -28.82 162.829 -28.8379C163.425 -28.8404 164.069 -28.8782 164.676 -28.8905C165.284 -28.9027 166.115 -28.9072 166.836 -28.912L169.067 -28.9113C169.506 -28.9137 169.934 -28.9064 170.36 -28.9027C170.876 -29.1655 171.054 -29.2271 171.744 -29.3423C171.98 -29.3847 172.22 -29.4101 172.436 -29.4153C173.12 -29.3946 173.979 -29.481 174.628 -29.4696C175.02 -29.4752 175.352 -29.446 175.592 -29.385C175.799 -29.3371 176.036 -29.2992 176.3 -29.2718C177.021 -29.4967 177.085 -29.6427 176.542 -29.6995C176.395 -29.7127 176.192 -29.7086 176.086 -29.7366C176.025 -29.7536 175.942 -29.7634 175.843 -29.765C175.744 -29.7667 175.632 -29.7603 175.516 -29.7463C175.15 -29.7095 174.807 -29.7008 174.521 -29.7212C174.252 -29.7481 173.923 -29.7471 173.564 -29.7181C173.301 -29.6726 173.069 -29.7368 172.841 -29.7554C172.613 -29.7739 172.426 -29.8072 172.07 -29.7574C172.005 -29.7475 171.94 -29.7415 171.881 -29.74C171.822 -29.7384 171.77 -29.7414 171.728 -29.7485C171.346 -29.7806 170.89 -29.7773 170.397 -29.7387C169.641 -29.7007 168.931 -29.6993 168.293 -29.7345C167.911 -29.7652 167.585 -29.8198 167.329 -29.896C167.259 -29.9215 167.155 -29.9368 167.027 -29.9404C166.385 -29.9245 165.688 -29.8646 164.98 -29.7647C164.714 -29.7247 164.448 -29.693 164.188 -29.6704C163.653 -29.6201 163.136 -29.5919 162.652 -29.5867C161.948 -29.5859 161.216 -29.5665 160.461 -29.5288C159.995 -29.5079 159.546 -29.5001 159.119 -29.5057C158.681 -29.5083 158.212 -29.4923 157.725 -29.458C157.241 -29.4301 156.813 -29.4462 156.495 -29.5044C156.391 -29.5357 156.306 -29.5729 156.244 -29.6153C156.954 -29.7532 157.687 -29.8233 158.298 -29.8115C158.529 -29.8206 158.722 -29.8114 158.966 -29.8651L158.974 -29.8472C159.023 -29.8355 159.096 -29.8327 159.18 -29.8394C159.264 -29.8461 159.353 -29.8618 159.43 -29.8834C159.401 -29.9517 159.373 -30.0164 159.353 -30.0631C158.888 -30.0549 158.437 -30.0555 158.001 -30.0651C157.634 -30.0789 157.135 -29.9582 156.817 -30.0036C156.197 -29.9468 155.802 -30.0253 155.246 -30.0026C154.69 -29.98 154.078 -29.9051 153.522 -29.8825C153.037 -29.8701 152.565 -29.8674 152.111 -29.8744C151.954 -29.8843 151.773 -29.882 151.58 -29.8676C151.307 -29.8406 151.054 -29.836 150.849 -29.8545C150.644 -29.873 150.495 -29.9138 150.419 -29.9722C150.49 -30.0269 150.586 -30.0974 150.697 -30.1705C150.493 -30.2305 150.185 -30.2558 149.817 -30.2425L149.298 -30.2454C149.16 -30.2439 149.054 -30.2601 149.003 -30.2908C148.952 -30.3215 148.959 -30.3642 149.023 -30.4103C150.009 -30.6421 150.045 -30.6677 150.768 -30.5186L151.729 -30.5879L151.713 -30.5889ZM138.721 -29.9521L138.794 -29.9648L138.721 -29.9521ZM19.0224 -5.28831L19.0393 -5.24877L19.0209 -5.2919L18.8599 -5.26412L18.8492 -5.28928L19.0224 -5.28831ZM42.4029 -22.6184C42.6304 -22.6615 42.8603 -22.7012 43.0909 -22.7371C43.1513 -22.7427 43.2078 -22.744 43.2557 -22.7408C43.3035 -22.7376 43.3413 -22.7302 43.3658 -22.719C43.3842 -22.6758 43.2554 -22.6459 43.1383 -22.6257C42.9906 -22.5985 42.8398 -22.5812 42.7013 -22.5756C42.5628 -22.5701 42.4416 -22.5764 42.3504 -22.5939L42.218 -22.6097L42.4029 -22.6184ZM159.638 -12.1057C159.488 -12.0984 159.346 -12.0972 159.215 -12.1022C158.635 -12.137 158.079 -12.1877 157.484 -12.2201C156.733 -12.3022 155.87 -12.3356 154.927 -12.3191C154.559 -12.311 154.248 -12.3377 154.03 -12.3958C153.9 -12.427 153.732 -12.4453 153.536 -12.4494L151.044 -12.5442C150.89 -12.5639 150.757 -12.5914 150.648 -12.6263C150.868 -12.6642 151.014 -12.6894 151.102 -12.7046C151.284 -12.7089 151.441 -12.6973 151.556 -12.6711C151.68 -12.6267 151.889 -12.6091 152.143 -12.6218C152.399 -12.6324 152.648 -12.6381 152.89 -12.6389C153.346 -12.6366 153.806 -12.6272 154.264 -12.6214C154.443 -12.4978 154.969 -12.5539 155.419 -12.5661L155.767 -12.5605C156.905 -12.4965 157.992 -12.4083 159.022 -12.2966C159.222 -12.2776 159.393 -12.2475 159.532 -12.207C159.584 -12.1754 159.601 -12.136 159.581 -12.092L159.654 -12.1046L159.638 -12.1057ZM108.832 -0.290639C108.556 -0.282222 108.269 -0.264938 107.974 -0.239035C107.747 -0.212587 107.526 -0.196531 107.319 -0.191512C106.158 -0.163811 104.949 -0.099837 103.707 -0.00044739C103.545 0.0146024 103.389 0.0219894 103.245 0.0214261L102.229 -0.00381377C101.908 -0.017992 101.902 -0.0323702 102.135 -0.223075C102.329 -0.260081 102.524 -0.293845 102.721 -0.32412C102.838 -0.344329 103.028 -0.377163 103.073 -0.346274C103.344 -0.261955 103.84 -0.316562 104.256 -0.334447C105.462 -0.38052 106.706 -0.44855 107.924 -0.50434C108.181 -0.517976 108.431 -0.524875 108.67 -0.524954C108.818 -0.527811 108.953 -0.522431 109.069 -0.509032C109.103 -0.507662 109.132 -0.503665 109.153 -0.497319C109.174 -0.490972 109.187 -0.482418 109.191 -0.472221C109.196 -0.46202 109.191 -0.450411 109.178 -0.438166C109.165 -0.425919 109.143 -0.413322 109.115 -0.401199C109.015 -0.358741 108.9 -0.318072 108.774 -0.280531L108.832 -0.290639ZM99.9969 -27.9693L98.8087 -27.9919C98.6662 -27.9943 98.5454 -28.0198 98.3929 -28.0089C97.5793 -27.9744 96.8261 -27.984 96.1651 -28.0373C95.9401 -28.059 95.6768 -28.0634 95.3897 -28.0501C94.5108 -28.0107 93.6816 -28.0091 92.9247 -28.0453C92.4355 -28.0526 91.9776 -28.077 91.558 -28.1181C91.5257 -28.1277 91.5055 -28.1407 91.4989 -28.1562C91.4923 -28.1717 91.4994 -28.1893 91.5198 -28.208C91.5251 -28.2198 91.5394 -28.2324 91.5619 -28.2451C91.5844 -28.2578 91.6144 -28.2702 91.65 -28.2815C91.6855 -28.2927 91.7257 -28.3026 91.7677 -28.3104C91.8098 -28.3181 91.8528 -28.3237 91.8937 -28.3265C92.4238 -28.3822 92.9271 -28.4017 93.3623 -28.3832C93.7659 -28.3611 94.2005 -28.3546 94.6591 -28.3639C95.0981 -28.3663 95.3959 -28.2942 95.9382 -28.3492C96.1676 -28.3673 96.3699 -28.3614 96.5111 -28.3323C96.7952 -28.2842 97.1916 -28.2815 97.63 -28.3248C97.8922 -28.3467 98.1429 -28.3561 98.3724 -28.3526C98.9291 -28.3368 99.4612 -28.3051 99.977 -28.2745C100.14 -28.2674 100.314 -28.2665 100.497 -28.2716L103.08 -28.3315C103.701 -28.3499 104.32 -28.3719 104.929 -28.3805C105.427 -28.3993 105.891 -28.3934 106.303 -28.3631C106.744 -28.3311 107.223 -28.3182 107.734 -28.3244C108.527 -28.307 109.316 -28.3003 110.179 -28.3026C110.73 -28.3012 111.293 -28.3059 111.869 -28.3202C112.16 -28.3388 112.407 -28.3237 112.562 -28.2779C112.657 -28.2402 112.88 -28.2709 113.065 -28.2797C114.05 -28.364 114.975 -28.3839 115.774 -28.3382C115.876 -28.3307 115.988 -28.328 116.107 -28.3301C116.877 -28.3317 117.674 -28.3419 118.412 -28.3421C118.607 -28.3385 118.79 -28.3287 118.959 -28.3129C118.941 -28.2871 118.889 -28.2591 118.815 -28.2348C118.74 -28.2104 118.648 -28.1916 118.559 -28.1821C117.86 -28.11 117.186 -28.0719 116.564 -28.0694C115.529 -28.0786 114.444 -28.0579 113.322 -28.0077C112.451 -27.957 111.657 -27.9676 110.998 -28.0389C110.484 -28.0921 109.815 -28.072 109.105 -27.9823C108.802 -27.9394 108.507 -27.9223 108.262 -27.9332C108.026 -27.9476 107.755 -27.9441 107.465 -27.923C106.854 -27.8829 106.266 -27.8643 105.713 -27.8676C105.172 -27.8823 104.668 -27.9227 104.113 -27.9349C103.558 -27.9471 102.712 -27.9401 102.028 -27.9609C101.343 -27.9817 100.666 -27.9845 99.9969 -27.9693ZM149.23 -30.0717C149.167 -29.9606 148.945 -29.8914 148.706 -29.8618C147.883 -29.7302 147.069 -29.6742 146.401 -29.7032C146.04 -29.7436 145.559 -29.7281 145.053 -29.6596C144.463 -29.5883 143.911 -29.5765 143.495 -29.6262C143.394 -29.6349 143.316 -29.6532 143.268 -29.6796C143.259 -29.7012 143.242 -29.7407 143.239 -29.7479C143.283 -29.7662 143.337 -29.783 143.396 -29.7973C143.455 -29.8115 143.519 -29.8228 143.581 -29.8301L146.309 -29.9573L146.784 -29.9853C147.652 -30.0587 148.479 -30.0879 149.23 -30.0717ZM143.865 -28.3127C143.44 -28.1312 143.438 -28.1348 143.22 -28.0933C142.168 -27.921 141.117 -27.828 140.192 -27.8253C139.986 -27.8258 139.811 -27.8433 139.683 -27.8764C139.616 -27.8809 139.574 -27.8951 139.565 -27.916C139.557 -27.9368 139.582 -27.9627 139.635 -27.9878L139.974 -28.1157C140.588 -28.171 141.194 -28.215 141.788 -28.2473C142.478 -28.2855 143.091 -28.287 143.807 -28.3026L143.865 -28.3127ZM108.883 -1.09425C108.487 -0.84447 108.485 -0.848065 107.821 -0.783639C107.358 -0.737986 106.909 -0.71119 106.488 -0.704049C105.973 -0.696169 105.444 -0.682171 104.931 -0.670695C104.805 -0.662731 104.699 -0.669333 104.632 -0.689227C104.566 -0.709117 104.544 -0.740869 104.57 -0.778322C104.638 -0.818967 104.743 -0.858291 104.87 -0.889901C104.996 -0.921511 105.136 -0.943547 105.266 -0.95243L105.547 -0.958358C105.887 -0.970803 106.241 -0.989369 106.569 -0.992094C106.783 -0.981746 107.03 -0.989752 107.292 -1.01549C107.553 -1.04124 107.822 -1.08401 108.078 -1.14047L108.883 -1.09425ZM141.748 -29.7452C141.642 -29.7019 141.522 -29.6605 141.391 -29.622C140.886 -29.5153 140.352 -29.4547 139.892 -29.452C139.675 -29.4454 139.477 -29.469 139.255 -29.4347C138.859 -29.3889 138.475 -29.3645 138.123 -29.3628C138.123 -29.3628 138.025 -29.3728 137.992 -29.375L137.925 -29.5331C138.091 -29.5697 138.265 -29.5997 138.437 -29.6215C139.017 -29.6636 139.586 -29.6924 140.154 -29.7247C140.721 -29.7571 140.919 -29.772 141.29 -29.7859C141.456 -29.7782 141.609 -29.7646 141.748 -29.7452ZM154.291 -10.0834L153.533 -9.75971C153.288 -9.73158 153.059 -9.72649 152.881 -9.7452C152.702 -9.7639 152.585 -9.80539 152.546 -9.86335C152.484 -9.89047 152.478 -9.93065 152.529 -9.97545C152.58 -10.0203 152.685 -10.0662 152.821 -10.1037C152.952 -10.1481 153.102 -10.1879 153.261 -10.2207C153.42 -10.2534 153.585 -10.2784 153.746 -10.2941L154.291 -10.0834ZM147.98 -11.6952C148.476 -11.7501 148.95 -11.7725 149.366 -11.7608C149.629 -11.7287 149.984 -11.7389 150.36 -11.7894C151.043 -11.8902 151.702 -11.918 152.197 -11.8672C152.197 -11.8672 152.215 -11.8241 152.299 -11.8115C152.383 -11.799 152.05 -11.7686 151.977 -11.756C151.44 -11.7251 150.9 -11.7014 150.433 -11.6903C150.144 -11.6907 149.837 -11.6805 149.519 -11.6598C149.082 -11.6279 148.667 -11.6176 148.291 -11.6292C148.291 -11.6292 148.145 -11.6388 147.981 -11.6916L147.98 -11.6952ZM95.0332 -28.5558C95.27 -28.6167 95.5268 -28.6663 95.7843 -28.7007C96.0418 -28.7351 96.2933 -28.7535 96.5201 -28.7545C96.6937 -28.7576 96.8342 -28.7415 96.9193 -28.7087C97.0044 -28.6759 97.0293 -28.6282 96.99 -28.5732C96.8144 -28.5429 96.5801 -28.5025 96.4484 -28.4797C95.9917 -28.4819 95.6022 -28.5112 95.0332 -28.5558ZM50.7053 -23.4183C50.8953 -23.4674 51.1046 -23.5049 51.3093 -23.5266C51.514 -23.5483 51.7059 -23.5532 51.8631 -23.5409C51.9439 -23.5356 51.8891 -23.4798 51.9028 -23.4475C51.9118 -23.4401 51.9117 -23.431 51.9025 -23.4211C51.8933 -23.4111 51.8754 -23.4007 51.8506 -23.3909C51.8259 -23.3811 51.7952 -23.3723 51.7618 -23.3654C51.7284 -23.3585 51.6935 -23.3538 51.6607 -23.3517C51.4546 -23.3305 51.26 -23.3243 51.0944 -23.3334C50.9287 -23.3425 50.7971 -23.3667 50.7114 -23.4039L50.7053 -23.4183ZM47.7352 -22.7167C47.7646 -22.7457 47.8272 -22.7759 47.9114 -22.8018C47.9956 -22.8276 48.0959 -22.8475 48.1938 -22.8576C48.3669 -22.859 48.5242 -22.8509 48.6597 -22.8338C48.8067 -22.8206 48.7009 -22.7368 48.5021 -22.687C48.4179 -22.6671 48.3279 -22.6515 48.2393 -22.6415C48.1508 -22.6316 48.066 -22.6276 47.9919 -22.6297C47.9177 -22.6319 47.8562 -22.6403 47.8122 -22.6541C47.7681 -22.668 47.7428 -22.687 47.7383 -22.7096L47.7352 -22.7167ZM134.037 -29.4371C134.481 -29.5406 134.822 -29.5146 135.197 -29.5562C135.572 -29.5978 135.664 -29.6021 135.614 -29.5356C135.564 -29.469 135.307 -29.4825 135.146 -29.4547C134.928 -29.4179 134.709 -29.3967 134.513 -29.3936C134.318 -29.3905 134.153 -29.4056 134.037 -29.4371ZM41.7012 -11.9295C41.9359 -11.9527 42.1658 -11.9691 42.3874 -11.9785C42.4166 -11.9689 42.4349 -11.9563 42.4412 -11.9415C42.4475 -11.9267 42.4417 -11.9099 42.4241 -11.8922C42.4241 -11.8922 42.2738 -11.8393 42.186 -11.8241C41.8624 -11.7721 41.8465 -11.8466 41.7012 -11.9295ZM8.52849 -2.28914C8.36963 -2.21928 8.29557 -2.17178 8.1684 -2.13826C8.10999 -2.12663 8.04957 -2.11817 7.99171 -2.11353C7.93384 -2.10888 7.87999 -2.10817 7.8341 -2.11144C7.7782 -2.13157 7.7651 -2.16236 7.79741 -2.19771C7.79741 -2.19771 7.95927 -2.26036 8.0209 -2.26328C8.19668 -2.27808 8.36706 -2.28676 8.52849 -2.28914ZM141.58 -30.0287C141.917 -30.0868 142.239 -30.1424 142.472 -30.0746C141.937 -30.0016 141.937 -30.0016 141.58 -30.0287ZM136.126 -29.3655C136.466 -29.4898 136.666 -29.501 136.829 -29.4868C136.864 -29.4832 136.887 -29.4751 136.895 -29.4639C136.902 -29.4527 136.894 -29.4389 136.872 -29.4246C136.85 -29.4103 136.814 -29.3962 136.771 -29.3846C136.727 -29.3729 136.679 -29.3643 136.632 -29.3601C136.454 -29.3565 136.285 -29.3583 136.126 -29.3655ZM118.628 -29.3129C118.62 -29.3309 118.611 -29.3525 118.699 -29.3676C118.722 -29.3753 118.749 -29.382 118.777 -29.3868C118.805 -29.3917 118.834 -29.3947 118.86 -29.3954C118.86 -29.3954 118.869 -29.3739 118.875 -29.3595L118.628 -29.3129ZM106.476 0.52487L106.672 0.541287L106.584 0.556442L106.352 0.565578L106.476 0.52487ZM37.6218 -22.9972C37.695 -23.0098 37.7682 -23.0224 37.779 -22.9973C37.7944 -22.9934 37.804 -22.9878 37.8069 -22.9809C37.8098 -22.974 37.806 -22.9661 37.7958 -22.9577C37.7958 -22.9577 37.6933 -22.9401 37.6494 -22.9325L37.6218 -22.9972ZM49.0215 -22.7959C49.0697 -22.7974 49.1131 -22.7957 49.1493 -22.791L49.1585 -22.7694L49.0121 -22.7442L49.0215 -22.7959ZM148.367 -17.6573C148.423 -17.6704 148.483 -17.6808 148.542 -17.6876L148.615 -17.7003C148.615 -17.7003 148.537 -17.6635 148.493 -17.656C148.449 -17.6484 148.414 -17.6577 148.367 -17.6573Z" fill="#2DAAE1"/>
</g>
</svg>
