<svg width="26" height="18" viewBox="0 0 26 18" fill="none" xmlns="http://www.w3.org/2000/svg">
<path d="M1.8501 3.05843H24.3501C24.6816 3.05843 24.9996 2.90918 25.234 2.6435C25.4684 2.37782 25.6001 2.01749 25.6001 1.64176C25.6001 1.26604 25.4684 0.905707 25.234 0.64003C24.9996 0.374353 24.6816 0.225098 24.3501 0.225098H1.8501C1.51858 0.225098 1.20063 0.374353 0.966214 0.64003C0.731794 0.905707 0.600098 1.26604 0.600098 1.64176C0.600098 2.01749 0.731794 2.37782 0.966214 2.6435C1.20063 2.90918 1.51858 3.05843 1.8501 3.05843ZM24.3501 14.3918H1.8501C1.51858 14.3918 1.20063 14.541 0.966214 14.8067C0.731794 15.0724 0.600098 15.4327 0.600098 15.8084C0.600098 16.1842 0.731794 16.5445 0.966214 16.8102C1.20063 17.0758 1.51858 17.2251 1.8501 17.2251H24.3501C24.6816 17.2251 24.9996 17.0758 25.234 16.8102C25.4684 16.5445 25.6001 16.1842 25.6001 15.8084C25.6001 15.4327 25.4684 15.0724 25.234 14.8067C24.9996 14.541 24.6816 14.3918 24.3501 14.3918ZM24.3501 7.30843H1.8501C1.51858 7.30843 1.20063 7.45769 0.966214 7.72336C0.731794 7.98904 0.600098 8.34937 0.600098 8.7251C0.600098 9.10082 0.731794 9.46115 0.966214 9.72683C1.20063 9.99251 1.51858 10.1418 1.8501 10.1418H24.3501C24.6816 10.1418 24.9996 9.99251 25.234 9.72683C25.4684 9.46115 25.6001 9.10082 25.6001 8.7251C25.6001 8.34937 25.4684 7.98904 25.234 7.72336C24.9996 7.45769 24.6816 7.30843 24.3501 7.30843Z" fill="#424242"/>
</svg>
