<svg width="17" height="15" viewBox="0 0 17 15" fill="none" xmlns="http://www.w3.org/2000/svg">
<path d="M16.644 8.38324L10.5723 14.6328C10.337 14.8789 10.0258 15 9.71467 15C9.40349 15 9.09308 14.8779 8.85628 14.6338C8.38193 14.1456 8.38193 13.3546 8.85628 12.8664L12.8568 8.75041H1.21428C0.543736 8.75041 0 8.19185 0 7.50049C0 6.80913 0.543736 6.25057 1.21428 6.25057H12.8568L8.85704 2.13365C8.38269 1.6454 8.38269 0.854437 8.85704 0.366187C9.33139 -0.122062 10.0998 -0.122062 10.5742 0.366187L16.6459 6.61578C17.1184 7.10598 17.1184 7.89499 16.644 8.38324Z" fill="#0F70B7"/>
</svg>
