<svg width="135" height="135" viewBox="0 0 135 135" fill="none" xmlns="http://www.w3.org/2000/svg">
<path d="M135 67.5C135 58.6358 133.254 49.8583 129.862 41.6689C126.47 33.4794 121.498 26.0382 115.23 19.7703C108.962 13.5023 101.521 8.53032 93.3311 5.13813C85.1417 1.74594 76.3642 0 67.5 0C58.6358 0 49.8583 1.74594 41.6689 5.13813C33.4794 8.53032 26.0382 13.5023 19.7703 19.7703C13.5023 26.0382 8.53032 33.4794 5.13813 41.6689C1.74594 49.8583 -1.32087e-07 58.6358 0 67.5C2.66762e-07 85.4021 7.11159 102.571 19.7703 115.23C32.429 127.888 49.5979 135 67.5 135C85.4021 135 102.571 127.888 115.23 115.23C127.888 102.571 135 85.4021 135 67.5ZM11.25 67.5C11.25 52.5816 17.1763 38.2742 27.7252 27.7252C38.2742 17.1763 52.5816 11.25 67.5 11.25C82.4184 11.25 96.7258 17.1763 107.275 27.7252C117.824 38.2742 123.75 52.5816 123.75 67.5C123.75 82.4184 117.824 96.7258 107.275 107.275C96.7258 117.824 82.4184 123.75 67.5 123.75C52.5816 123.75 38.2742 117.824 27.7252 107.275C17.1763 96.7258 11.25 82.4184 11.25 67.5ZM56.25 53.4375C56.25 54.5455 56.0318 55.6427 55.6077 56.6664C55.1837 57.6901 54.5622 58.6202 53.7787 59.4037C52.9952 60.1872 52.0651 60.8087 51.0414 61.2327C50.0177 61.6568 48.9205 61.875 47.8125 61.875C46.7045 61.875 45.6073 61.6568 44.5836 61.2327C43.5599 60.8087 42.6298 60.1872 41.8463 59.4037C41.0628 58.6202 40.4413 57.6901 40.0173 56.6664C39.5932 55.6427 39.375 54.5455 39.375 53.4375C39.375 51.1997 40.2639 49.0536 41.8463 47.4713C43.4286 45.8889 45.5747 45 47.8125 45C50.0503 45 52.1964 45.8889 53.7787 47.4713C55.3611 49.0536 56.25 51.1997 56.25 53.4375ZM95.625 53.4375C95.625 55.6753 94.736 57.8214 93.1537 59.4037C91.5714 60.9861 89.4253 61.875 87.1875 61.875C84.9497 61.875 82.8036 60.9861 81.2213 59.4037C79.639 57.8214 78.75 55.6753 78.75 53.4375C78.75 51.1997 79.639 49.0536 81.2213 47.4713C82.8036 45.8889 84.9497 45 87.1875 45C89.4253 45 91.5714 45.8889 93.1537 47.4713C94.736 49.0536 95.625 51.1997 95.625 53.4375ZM46.485 99.2475C56.8913 86.9175 78.0975 86.9175 88.515 99.2475C88.9799 99.8455 89.5607 100.343 90.2227 100.712C90.8847 101.08 91.6142 101.31 92.3675 101.389C93.1208 101.469 93.8823 101.395 94.6064 101.173C95.3305 100.951 96.0023 100.584 96.5814 100.096C97.1605 99.608 97.6351 99.0079 97.9767 98.3318C98.3182 97.6558 98.5197 96.9177 98.5691 96.1619C98.6185 95.4061 98.5147 94.6481 98.2639 93.9333C98.0132 93.2186 97.6207 92.5619 97.11 92.0025C82.2038 74.34 52.785 74.34 37.89 92.0025C37.3793 92.5619 36.9868 93.2186 36.7361 93.9333C36.4853 94.6481 36.3815 95.4061 36.4309 96.1619C36.4803 96.9177 36.6818 97.6558 37.0233 98.3318C37.3649 99.0079 37.8395 99.608 38.4186 100.096C38.9977 100.584 39.6695 100.951 40.3936 101.173C41.1177 101.395 41.8792 101.469 42.6325 101.389C43.3858 101.31 44.1153 101.08 44.7773 100.712C45.4393 100.343 46.0201 99.8455 46.485 99.2475Z" fill="#F21E1E" fill-opacity="0.93"/>
</svg>
